<?xml version="1.0" encoding="utf-8"?>
<!-- Generator: Adobe Illustrator 16.0.0, SVG Export Plug-In . SVG Version: 6.00 Build 0)  -->
<!DOCTYPE svg PUBLIC "-//W3C//DTD SVG 1.1//EN" "http://www.w3.org/Graphics/SVG/1.1/DTD/svg11.dtd">
<svg version="1.1" id="圖層_1" xmlns="http://www.w3.org/2000/svg" xmlns:xlink="http://www.w3.org/1999/xlink" x="0px" y="0px"
	 width="201.795px" height="77.613px" viewBox="0 0 201.795 77.613" enable-background="new 0 0 201.795 77.613"
	 xml:space="preserve">
<g>
	<rect x="4.863" y="13.209" fill="#E60012" width="5.053" height="38.51"/>
	<path fill="#E60012" d="M31.841,24.077H26.68c-4.932,0-8.931,4.126-8.931,9.214v18.328c0,0.018,0,0.032,0,0.05h5.016v-0.016
		l0.002-17.938c0-3.205,2.517-5.8,5.619-5.8h1.94c3.101,0,5.621,2.595,5.621,5.8c0,0,0,0.007,0,0.015c0,0,0,15.754,0,17.534
		c0,0.004,0,0.01,0,0.016v0.373v0.016h3.834h0.992c0-0.018,0.002-0.032,0.002-0.05V33.291
		C40.775,28.203,36.775,24.077,31.841,24.077z"/>
	<path fill="#E60012" d="M31.775,24.077h-5.16c-4.934,0-8.933,4.126-8.933,9.214v18.328c0,0.018,0,0.032,0,0.05h5.016v-0.016
		l0.003-17.938c0-3.205,2.517-5.8,5.619-5.8h1.939c3.104,0,5.62,2.595,5.62,5.8c0,0,0,0.007,0,0.015c0,0,0,15.754,0,17.534
		c0,0.004,0,0.01,0,0.016v0.373v0.016h3.837h0.993c0-0.018,0-0.032,0-0.05V33.291C40.71,28.203,36.709,24.077,31.775,24.077z"/>
	<path fill="#E60012" d="M50.689,51.675c0-10.201,0-31.347,0-31.347c0.25-3.654,2.814-6.999,7.33-7.099h6.243v4.605h-5.447
		c0,0-3.163-0.254-3.196,3.764v30.069L50.689,51.675z"/>
	<rect x="45.635" y="24.32" fill="#E60012" width="18.03" height="4.639"/>
	<path fill="#E60012" d="M82.354,24.003h-5.035c-5.635,0-10.204,4.32-10.204,9.648v8.36c0,5.33,4.569,9.649,10.204,9.649h5.035
		c5.634,0,10.202-4.319,10.202-9.649v-8.36C92.556,28.323,87.988,24.003,82.354,24.003z M87.484,40.873
		c0,3.88-2.317,6.37-5.983,6.37h-3.277c-3.669,0-5.987-2.49-5.987-6.37v-6.088c0-3.878,2.318-6.367,5.987-6.367H81.5
		c3.666,0,5.983,2.489,5.983,6.367V40.873z"/>
	<path d="M100.18,51.663c0-10.896,0-30.502,0-30.502c0.3-5.964,2.953-7.886,7.965-7.918c0,0,2.606,0,4.978,0h11.994v4.533h-14.883
		c-1.871,0.154-4.637-0.091-5.023,2.255c-0.15,0.893-0.196,1.862-0.196,2.765v7.957h19.229v4.711h-19.279v16.2H100.18z"/>
	<path d="M141.68,23.715c0,0-0.229,0-0.466,0h-7.876v4.625c2.192,0,4.387,0,6.58,0c1.308,0,2.621,0.049,3.9,0.32
		c1.269,0.271,2.558,0.703,3.404,1.743c0.812,0.992,1.004,1.698,1.135,2.931c0.028,0.301,0.063,0.769,0.034,1.066h-8.535
		c-1.924,0-3.974,0.121-5.824,0.67c-1.55,0.457-3.554,2-4.462,3.353c-0.696,1.038-1.048,2.348-1.188,3.579
		c-0.062,0.555,0,0.903,0,0.903c0,5.002,2.046,9.248,12.231,9.444c1.512,0.031,3.023-0.196,4.507-0.454
		c2.333-0.405,4.702-1.211,6.311-3.036c1.389-1.579,1.719-3.799,1.896-5.819c0.219-2.46,0.096-4.935,0.05-7.398
		c-0.031-1.618-0.089-3.277-0.52-4.847c-0.75-2.725-2.817-4.842-5.41-5.906C145.714,24.176,143.555,23.715,141.68,23.715z
		 M148.38,42.979c-0.135,2.655-2.218,4.526-4.819,4.613h-5.524c-0.671,0-1.272-0.073-1.929-0.212
		c-0.51-0.109-1.01-0.296-1.433-0.607c-0.343-0.254-0.631-0.577-0.839-0.946c-0.215-0.383-0.34-0.808-0.401-1.244
		c-0.071-0.539-0.156-1.07-0.137-1.613c0.015-0.487,0.046-0.983,0.169-1.456c0.113-0.435,0.315-0.835,0.607-1.178
		c0.297-0.347,0.662-0.631,1.059-0.859c0.411-0.237,0.857-0.413,1.323-0.526c0.48-0.117,0.973-0.169,1.465-0.208
		c0.06-0.005,0.119-0.014,0.181-0.014c0,0,4.597,0,5.405,0h4.9L148.38,42.979z"/>
	<g>
		<polygon points="164.725,42.894 159.803,41.368 159.803,13.243 164.725,13.243 		"/>
		<path d="M185.296,30.233c-1.809-4.86-6.882-7.204-11.815-6.963c-1.448,0.069-3.275,0.25-4.621,0.806
			c-1.466,0.605-2.942,1.768-3.885,3.053c-1.243,1.692-5.147,4.799-5.147,6.931c0,0.001,0,8.035,0,8.035
			c0.2,5.859,3.708,10.111,9.755,10.262h5.612c4.563,0,10.813-3.347,10.713-9.925v-8.722
			C185.908,32.456,185.69,31.294,185.296,30.233z M181.432,40.725c-0.048,4.005-2.631,7.147-7.045,7.147h-2.565
			c-3.891,0-7.313-0.33-7.047-7.147v-5.719c0-3.948,3.156-7.148,7.047-7.148h2.565c6.035,0.164,7.045,3.2,7.045,7.148V40.725z"/>
	</g>
	<g>
		<path d="M12.093,58.608h-3.5v0.69H7.508v-0.69H4.482v-0.983h3.026v-0.677h1.085v0.677h3.5v-0.677h1.086v0.677h2.848v0.983h-2.848
			v0.742h-1.086V58.608z M9.756,67.14H4.635v-0.982h5.122v-1.021H4.98v-0.984h1.775v-1.25H4.482v-0.997h2.273v-1.252H4.98V59.67
			h10.6v0.982h-1.698v1.252h2.146v0.997h-2.146v1.25h1.647v0.984h-4.701v1.021h5.046v0.982h-5.046v1.687H9.756V67.14z M9.756,61.904
			v-1.252H7.841v1.252H9.756z M9.756,64.151v-1.25H7.841v1.25H9.756z M10.829,60.652v1.252h1.968v-1.252H10.829z M10.829,62.901
			v1.25h1.968v-1.25H10.829z"/>
		<path d="M43.447,68.111c1.468-1.049,2.529-1.968,3.167-2.745c-0.549-1.062-0.945-2.363-1.175-3.871
			c-0.191,0.677-0.422,1.264-0.677,1.775l-1.085-0.281l0.383-0.855l-0.944,0.282l-0.205-0.588l-1.213,0.165v1.685h1.954v1.035
			h-1.954v2.16c0.792-0.206,1.456-0.436,1.98-0.678l0.459,1.049c-1.443,0.548-3.282,1.008-5.504,1.327l-0.37-1.085l2.349-0.358
			v-2.415h-2.068v-1.035h2.068v-1.53l-2.03,0.28l-0.333-1.073l0.78-0.077c0.434-0.854,0.817-1.75,1.149-2.694h-1.686v-1.034h5.606
			v1.034h-2.81c-0.243,0.702-0.6,1.56-1.047,2.541l2.312-0.293l-0.51-1.149L43,59.313c0.524,1.173,0.881,2.107,1.086,2.77
			c0.651-1.62,0.958-3.309,0.945-4.993h1.021l-0.076,1.381h4.112v1.085h-0.856c0,2.223-0.498,4.2-1.468,5.926
			c0.409,0.677,1.226,1.621,2.426,2.848l-1.021,0.537c-0.817-0.869-1.494-1.712-2.005-2.557c-0.779,0.908-1.724,1.764-2.822,2.57
			L43.447,68.111z M46.103,59.555c0.077,1.431,0.268,2.643,0.575,3.639c0.102,0.357,0.256,0.792,0.499,1.266
			c0.689-1.252,1.022-2.9,1.022-4.904H46.103z"/>
		<path d="M72.272,60.728c0.983-0.254,1.865-0.714,2.618-1.352l0.664,0.804c-1.009,0.792-1.954,1.29-2.81,1.494L72.272,60.728z
			 M80.05,67.217h-3.717l0.229,0.779c-1.034,0.383-2.312,0.677-3.844,0.883l-0.217-1.035c1.238-0.181,2.261-0.396,3.078-0.627
			h-1.546c-0.089,0-0.128-0.05-0.128-0.154v-5.389c0-0.088,0.039-0.141,0.128-0.141h8.442c0.09,0,0.141,0.053,0.141,0.141v5.389
			c0,0.104-0.051,0.154-0.141,0.154h-1.418c0.868,0.104,1.827,0.319,2.887,0.627l-0.23,1.035c-1.558-0.435-2.836-0.666-3.806-0.729
			L80.05,67.217z M72.553,57.523h2.81v0.984h-2.81V57.523z M74.942,63.104h6.641v-0.6l-0.051-0.038h-6.553
			c-0.037,0-0.051,0.011-0.037,0.038V63.104z M74.942,64.701h6.641v-0.704h-6.641V64.701z M81.583,65.596h-6.641v0.625l0.037,0.052
			h6.553l0.051-0.052V65.596z M83.576,61.61c-1.891-0.206-3.321-0.933-4.292-2.196c-0.792,1.048-1.929,1.71-3.397,1.954
			l-0.396-0.996c0.574-0.077,1.086-0.192,1.532-0.333c0.473-0.179,1.01-0.639,1.583-1.354h-1.404
			c-0.484,0.484-0.83,0.792-1.034,0.919l-0.767-0.74c0.767-0.498,1.367-1.148,1.788-1.902l0.907,0.523l-0.18,0.256h5.378
			l0.587,0.586c-0.511,0.639-1.072,1.239-1.686,1.789l-0.779-0.677l0.805-0.754h-2.286c0.715,1.1,2.069,1.738,4.062,1.891
			l-0.319,1.034H83.576z"/>
		<path d="M106.307,59.093h4.802v1.035h-4.802V59.093z M107.801,68.034v0.448h-1.033v-4.254c0-0.204,0.101-0.319,0.319-0.319h3.27
			c0.216,0,0.331,0.115,0.331,0.319v3.462c0,0.23-0.115,0.344-0.347,0.344H107.801z M106.907,60.716h3.563v0.985h-3.563V60.716z
			 M106.907,62.313h3.563v0.984h-3.563V62.313z M106.958,57.446h3.46v1.035h-3.46V57.446z M109.653,65.059
			c0-0.115-0.063-0.165-0.165-0.165h-1.533c-0.102,0-0.153,0.05-0.153,0.165v1.993h1.648c0.127,0,0.203-0.077,0.203-0.218V65.059z
			 M112.63,62.582v-4.074h-1.343v-1.086h4.789c0.192-0.025,0.371,0.013,0.371,0.203c-0.013,1.049-0.013,2.007-0.013,2.888
			c0,3.704,0.104,5.873,0.332,6.5c0.025,0.077,0.077,0.127,0.168,0.127c0.036,0,0.062,0,0.062-0.139l0.026-1.534l1.073,0.219
			c-0.104,1.864-0.332,3.154-1.139,3.154c-0.229,0-0.419-0.077-0.573-0.242l-0.28-0.435c-0.5-0.996-0.742-3.704-0.742-8.097
			c0-0.206,0.026-1.202,0.026-1.42c0-0.077-0.052-0.115-0.165-0.139h-1.508v3.767l1.021-0.358l0.357,1.023
			c-0.294,0.127-0.779,0.292-1.418,0.484l-0.269,1.853c-0.345,1.532-0.829,2.667-1.432,3.371l-1.109-0.357
			c1.021-1.379,1.597-2.912,1.726-4.585l-1.406,0.319l-0.333-1.047L112.63,62.582z"/>
		<path d="M145.388,57.422c0.215,0,0.306,0.102,0.306,0.294v4.008c0,0.206-0.103,0.319-0.319,0.319h-3.614v6.693h-1.034V57.716
			c0-0.192,0.088-0.294,0.292-0.294H145.388z M141.76,59.222h2.898v-0.575c0-0.165-0.09-0.242-0.242-0.242h-2.414
			c-0.165,0-0.256,0.089-0.242,0.256V59.222z M144.659,60.204h-2.898v0.858h2.631c0.178,0,0.268-0.091,0.268-0.27V60.204z
			 M146.958,65.838h-1.801c-0.076,1.187-0.754,2.069-1.954,2.617l-0.663-0.842c0.714-0.256,1.571-0.793,1.635-1.775h-1.712v-0.982
			h1.726V63.82h-1.521v-0.933h6.795v0.933h-1.47v1.035h1.777v0.982h-1.777v2.402h-1.034V65.838z M146.958,64.855V63.82h-1.787v1.035
			H146.958z M150.446,62.043h-3.604c-0.216,0-0.331-0.113-0.331-0.342v-3.96c0-0.206,0.115-0.319,0.319-0.319h4.304
			c0.243,0,0.345,0.113,0.345,0.332v9.947c0,0.539-0.345,1.164-1.558,1.164c-0.41,0-0.881-0.063-1.406-0.218l0.104-1.137
			c0.601,0.18,1.06,0.256,1.354,0.256c0.204,0,0.473,0,0.473-0.484V62.043z M147.545,59.222h2.9v-0.523
			c0-0.19-0.09-0.294-0.308-0.294h-2.35c-0.166,0-0.254,0.089-0.243,0.256V59.222z M150.446,60.204h-2.9v0.551
			c0,0.203,0.103,0.308,0.293,0.308h2.607V60.204z"/>
		<path d="M175.937,65.659l-0.065,0.459l-0.957-0.255l0.385-2.759c0.05-0.23,0.177-0.346,0.382-0.319h2.668v-0.894
			c0-0.077-0.036-0.114-0.127-0.114h-2.631v-0.588l-1.06,0.254l-0.433-0.931c0.79-0.141,1.453-0.281,1.965-0.446
			c-0.446-0.358-0.869-0.678-1.238-0.896l0.65-0.804c0.6,0.407,1.149,0.83,1.623,1.227c0.907-0.639,1.417-1.214,1.417-1.329
			c0-0.063-0.076-0.063-0.129-0.063h-2.157v-0.984h3.104l0.575,0.486c-0.575,1.406-1.698,2.464-3.347,3.129h2.516
			c0.168,0,0.256,0.077,0.256,0.243v2.938h-0.984v-0.296h-1.915c-0.114,0.015-0.191,0.09-0.204,0.244l-0.139,0.766h2.808
			c0.218,0,0.333,0.063,0.333,0.179c0,1.01-0.102,2.339-0.154,2.734c-0.052,0.281-0.229,0.562-0.484,0.791
			c-0.244,0.205-0.473,0.396-1.341,0.396c-0.511,0-1.138-0.09-1.877-0.255l-0.09-1.112c0.806,0.256,1.429,0.396,1.877,0.396
			c0.663,0,0.883-0.408,0.944-0.523l0.104-1.48c0.012-0.129-0.052-0.192-0.165-0.192H175.937z M185.618,68.802
			c-1.368-0.065-2.516-0.396-3.41-0.958l-0.254,0.139c-0.845,0.435-1.521,0.715-2.031,0.844l-0.577-0.996
			c0.793-0.179,1.444-0.396,1.954-0.625c-0.51-0.423-0.969-0.971-1.339-1.623l0.92-0.473c0.435,0.729,0.881,1.276,1.341,1.609
			c1.405-0.881,1.8-1.787,1.8-1.877c0-0.091-0.102-0.115-0.204-0.103h-3.869v-0.984h4.75l0.563,0.55
			c-0.385,1.008-0.831,1.775-1.342,2.262l-0.766,0.664c0.702,0.306,1.635,0.484,2.758,0.51L185.618,68.802z M181.428,61.443
			c-0.129,0-0.129,0.052-0.129,0.448c0,1.021-0.677,1.506-1.238,1.75l-0.601-0.806c0.523-0.254,0.908-0.458,0.908-1.25v-0.82
			l0.05-0.151l0.154-0.052h2.911l0.154,0.052l0.063,0.151v1.354l0.063,0.319c0.052,0.065,0.165,0.104,0.357,0.115
			c0.127,0,0.154-0.012,0.385-0.063c0.039-0.014,0.062-0.09,0.062-0.256l0.027-0.548l0.881,0.141l-0.103,1.021
			c-0.063,0.345-0.486,0.601-0.806,0.601h-0.881c-0.435-0.025-0.931-0.306-0.931-0.92v-0.943c0-0.091-0.052-0.143-0.143-0.143
			H181.428z M184.098,59.643c0.575,0.256,1.225,0.512,1.954,0.743l-0.639,0.919c-2.031-0.781-3.729-1.865-5.122-3.244l0.562-0.906
			l0.958,0.958c0.435-0.448,0.792-0.819,1.01-1.112l0.69,0.688l-0.958,1.01l0.664,0.46l1.123-1.162l0.663,0.702L184.34,59.4
			L184.098,59.643z"/>
	</g>
	<path fill="#E60012" d="M192.933,13.207c-2.863,0-5.187,2.322-5.187,5.186c0,2.865,2.323,5.187,5.187,5.187
		c2.864,0,5.186-2.322,5.186-5.187C198.119,15.529,195.797,13.207,192.933,13.207z M192.997,14.31c0.597,0,1.081,0.486,1.081,1.082
		c0,0.6-0.484,1.084-1.081,1.084c-0.6,0-1.082-0.484-1.082-1.084C191.915,14.796,192.397,14.31,192.997,14.31z M192.999,22.092
		c-0.448,0-0.865,0.084-1.221,0.234v-0.008c0.405-0.729,0.653-1.695,0.653-2.752c0-1.059-0.246-2.022-0.653-2.752
		c0.355,0.15,0.772,0.237,1.221,0.237c0.442,0,0.856-0.085,1.21-0.234c-0.403,0.73-0.65,1.691-0.65,2.75
		c0,1.063,0.25,2.028,0.658,2.758C193.863,22.176,193.443,22.092,192.999,22.092z"/>
</g>
</svg>
